<svg xmlns="http://www.w3.org/2000/svg" width="297" height="68" viewBox="0 0 297 68" fill="none">
  <path d="M89.5102 18.6213H86.4415V22.4242H83.2163V9.01172H89.5102C92.383 9.01172 94.579 10.9473 94.579 13.8212C94.579 16.6952 92.383 18.6213 89.5102 18.6213ZM86.4415 11.7469V15.8838H89.2839C90.5091 15.8838 91.2745 14.9642 91.2745 13.8095C91.2745 12.5653 90.4694 11.7446 89.2839 11.7446H86.4415V11.7469Z" fill="#ffffff"/>
  <path d="M105.151 17.683C105.151 20.5075 103.004 22.6218 100.091 22.6218C97.1787 22.6218 95.0317 20.5075 95.0317 17.683C95.0317 14.8584 97.1787 12.7441 100.091 12.7441C103.004 12.7441 105.151 14.8584 105.151 17.683ZM98.0912 17.683C98.0912 18.9671 98.915 19.8655 100.091 19.8655C101.267 19.8655 102.091 18.9671 102.091 17.683C102.091 16.3989 101.267 15.5005 100.091 15.5005C98.915 15.5005 98.0912 16.3989 98.0912 17.683Z" fill="#ffffff"/>
  <path d="M109.562 22.4243H106.474V8.52026H109.562V22.4243Z" fill="#ffffff"/>
  <path d="M111.216 10.0302C111.216 9.0236 111.902 8.32275 112.903 8.32275C113.904 8.32275 114.609 9.01419 114.609 10.0302C114.609 11.0462 113.904 11.7282 112.903 11.7282C111.902 11.7282 111.216 11.0368 111.216 10.0302ZM114.46 22.4244H111.372V12.9441H114.46V22.4244Z" fill="#ffffff"/>
  <path d="M120.049 15.4817V18.5438C120.049 20.1525 121.47 20.0161 122.961 19.6609L123.176 22.1891C122.49 22.4455 121.461 22.6242 120.677 22.6242C118.52 22.6242 116.961 21.5777 116.961 19.0494V15.4841H115.461V12.9464H116.961V9.90552H119.951V12.9464H122.607V15.4841H120.049V15.4817Z" fill="#ffffff"/>
  <path d="M132.742 21.7728C132.007 22.1985 130.662 22.6218 129.223 22.6218C125.731 22.6218 123.645 20.6675 123.645 17.683C123.645 14.6985 125.694 12.7441 128.469 12.7441C131.243 12.7441 133.614 14.5503 132.928 18.4826H126.655C126.812 19.5786 127.979 19.9925 129.244 19.9925C130.508 19.9925 131.724 19.7267 132.322 19.4398L132.744 21.7705L132.742 21.7728ZM130.172 16.6576C130.172 15.9168 129.554 15.2159 128.515 15.2159C127.379 15.2159 126.742 15.8768 126.662 16.6576H130.172Z" fill="#ffffff"/>
  <path d="M139.078 12.7466C140.156 12.7466 141.02 12.8947 142.175 13.3792L141.948 16.025C141.262 15.7381 140.42 15.5617 139.624 15.5617C138.212 15.5617 136.957 16.0862 136.957 17.6854C136.957 19.0589 138.065 19.7692 139.456 19.7692C140.476 19.7692 141.104 19.541 141.986 19.1177L142.289 21.8435C141.202 22.3679 140.347 22.6243 139.113 22.6243C136.102 22.6243 133.869 20.6088 133.869 17.7066C133.869 14.447 136.163 12.7489 139.076 12.7489L139.078 12.7466Z" fill="#ffffff"/>
  <path d="M146.77 13.7624C147.446 13.0404 148.506 12.7441 149.535 12.7441C151.309 12.7441 153.015 13.9976 153.015 16.2601V22.4219H149.927V17.1491C149.927 16.0931 149.094 15.5898 148.35 15.5898C147.605 15.5898 146.781 16.0931 146.781 17.1491V22.4219H143.685V8.51782H146.772V13.7624H146.77Z" fill="#ffffff"/>
  <path d="M161.007 22.4244V17.1516C161.007 16.0956 160.174 15.5923 159.43 15.5923C158.685 15.5923 157.861 16.0956 157.861 17.1516V22.4244H154.774V12.9441H157.607L157.705 13.9413C158.372 13.0923 159.509 12.7466 160.617 12.7466C162.391 12.7466 164.097 14.0001 164.097 16.2626V22.4244H161.01H161.007Z" fill="#ffffff"/>
  <path d="M165.661 10.0302C165.661 9.0236 166.347 8.32275 167.348 8.32275C168.349 8.32275 169.054 9.01419 169.054 10.0302C169.054 11.0462 168.349 11.7282 167.348 11.7282C166.347 11.7282 165.661 11.0368 165.661 10.0302ZM168.904 22.4244H165.817V12.9441H168.904V22.4244Z" fill="#ffffff"/>
  <path d="M173.808 16.1426H175.014L176.858 12.9417H180.3L177.448 17.5348L181.007 22.4243H177.311L174.919 18.8589H173.81V22.4243H170.723V8.52026H173.81V16.1449L173.808 16.1426Z" fill="#ffffff"/>
  <path d="M187.987 22.4244L187.889 21.4272C187.35 22.0998 186.438 22.6219 185.115 22.6219C182.606 22.6219 180.762 20.5288 180.762 17.6948C180.762 14.8609 182.606 12.7466 185.115 12.7466C186.438 12.7466 187.35 13.2804 187.889 13.9413L187.987 12.9441H190.977V22.4244H187.987ZM183.822 17.6948C183.822 18.9789 184.655 19.8773 185.852 19.8773C187.049 19.8773 187.882 18.9789 187.882 17.6948C187.882 16.4107 187.049 15.5217 185.852 15.5123C184.657 15.5123 183.822 16.4107 183.822 17.6948Z" fill="#ffffff"/>
  <path d="M203.266 14.5222L206.334 9.03069H209.912L205.863 15.9427L210.803 22.422H206.834L203.07 17.2574H201.235V22.422H198.01V9.00952H201.235V14.5199H203.266V14.5222Z" fill="#ffffff"/>
  <path d="M217.013 12.7466C217.387 12.7466 217.767 12.8148 218.161 12.9441L217.975 15.6605C217.583 15.5217 217.181 15.4535 216.789 15.4535C215.622 15.4535 214.633 16.0956 214.633 17.8642V22.4267H211.545V12.9465H214.458L214.556 14.24C214.997 13.3016 215.928 12.7489 217.016 12.7489L217.013 12.7466Z" fill="#ffffff"/>
  <path d="M225.786 22.4244L225.688 21.4272C225.149 22.0998 224.236 22.6219 222.913 22.6219C220.404 22.6219 218.561 20.5288 218.561 17.6948C218.561 14.8609 220.404 12.7466 222.913 12.7466C224.236 12.7466 225.149 13.2804 225.688 13.9413L225.786 12.9441H228.775V22.4244H225.786ZM221.62 17.6948C221.62 18.9789 222.453 19.8773 223.65 19.8773C224.847 19.8773 225.681 18.9789 225.681 17.6948C225.681 16.4107 224.847 15.5217 223.65 15.5123C222.455 15.5123 221.62 16.4107 221.62 17.6948Z" fill="#ffffff"/>
  <path d="M233.669 16.1426H234.876L236.719 12.9417H240.161L237.31 17.5348L240.869 22.4243H237.172L234.78 18.8589H233.671V22.4243H230.584V8.52026H233.671V16.1449L233.669 16.1426Z" fill="#ffffff"/>
  <path d="M250.654 17.683C250.654 20.5075 248.507 22.6218 245.594 22.6218C242.682 22.6218 240.535 20.5075 240.535 17.683C240.535 14.8584 242.682 12.7441 245.594 12.7441C248.507 12.7441 250.654 14.8584 250.654 17.683ZM243.594 17.683C243.594 18.9671 244.418 19.8655 245.594 19.8655C246.77 19.8655 247.594 18.9671 247.594 17.683C247.594 16.3989 246.77 15.5005 245.594 15.5005C244.418 15.5005 243.594 16.3989 243.594 17.683Z" fill="#ffffff"/>
  <path d="M259.874 13.1298L261.696 19.1834L263.344 12.9417H266.49L263.715 22.4219H260.107L258.656 17.6712L257.216 22.4219H253.608L250.833 12.9417H253.979L255.617 19.1834L257.451 13.1298H259.874Z" fill="#ffffff"/>
  <path d="M270.7 22.6219C269.309 22.6219 267.925 22.375 267.024 21.9705L267.327 19.5105C268.228 19.8656 269.572 20.1431 270.436 20.1431C271.465 20.1431 271.857 19.9949 271.857 19.5904C271.857 19.2353 271.572 19.0871 270.592 18.9296L269.719 18.7908C267.759 18.4851 266.877 17.5867 266.877 15.9074C266.877 13.9813 268.564 12.7466 271.201 12.7466C272.408 12.7466 273.514 12.9535 274.417 13.3581L274.181 15.7781C273.584 15.5312 272.181 15.2748 271.367 15.2748C270.317 15.2748 269.817 15.4724 269.817 15.8863C269.817 16.2226 270.2 16.399 271.269 16.5683L272.181 16.7165C273.995 17.0128 274.837 17.9018 274.837 19.5222C274.837 21.4178 273.239 22.6243 270.7 22.6243V22.6219Z" fill="#ffffff"/>
  <path d="M279.299 16.1426H280.506L282.35 12.9417H285.792L282.94 17.5348L286.499 22.4243H282.802L280.41 18.8589H279.302V22.4243H276.214V8.52026H279.302V16.1449L279.299 16.1426Z" fill="#ffffff"/>
  <path d="M293.481 22.4244L293.383 21.4272C292.844 22.0998 291.931 22.6219 290.608 22.6219C288.099 22.6219 286.256 20.5288 286.256 17.6948C286.256 14.8609 288.099 12.7466 290.608 12.7466C291.931 12.7466 292.844 13.2804 293.383 13.9413L293.481 12.9441H296.47V22.4244H293.481ZM289.315 17.6948C289.315 18.9789 290.148 19.8773 291.346 19.8773C292.543 19.8773 293.376 18.9789 293.376 17.6948C293.376 16.4107 292.543 15.5217 291.346 15.5123C290.151 15.5123 289.315 16.4107 289.315 17.6948Z" fill="#ffffff"/>
  <path d="M82.4512 31.4624H84.5095L87.821 43.0076L91.0461 31.6788H93.2514L96.4766 43.0076L99.7788 31.4624H101.846L98.1428 44.8749H94.8197L92.1453 34.9408L89.4709 44.8749H86.1594L82.4558 31.4624H82.4512Z" fill="#ffffff"/>
  <path d="M110.133 35.3948H112.269L107.76 46.0815C107.006 47.8383 106.192 49.0237 103.9 49.0237C103.067 49.0237 102.509 48.7673 102.341 48.6779L102.546 47.0575C102.81 47.1751 103.321 47.3045 103.811 47.3045C105.076 47.3045 105.585 46.6624 106.007 45.557L106.213 45.0138L102.157 35.3948H104.292L107.223 42.8618L110.133 35.3948Z" fill="#ffffff"/>
  <path d="M112.609 40.0842C112.609 37.1703 114.658 35.1947 117.333 35.1947C118.929 35.1947 119.988 35.7874 120.684 36.6858V30.9685H122.623V44.8725H120.684V43.579C119.988 44.4774 118.929 45.0701 117.333 45.0701C114.658 45.0701 112.609 42.9958 112.609 40.0819V40.0842ZM117.568 36.9539C115.755 36.9539 114.551 38.3368 114.551 40.0842C114.551 41.8316 115.758 43.3133 117.568 43.3133C119.379 43.3133 120.675 41.8316 120.675 40.0842C120.675 38.3368 119.372 36.9539 117.568 36.9539Z" fill="#ffffff"/>
  <path d="M124.46 43.2452L129.312 37.0528H124.558V35.3948H131.515V37.0246L126.663 43.217H131.818V44.875H124.458V43.2452H124.46Z" fill="#ffffff"/>
  <path d="M133.208 32.2127C133.208 31.5024 133.699 31.0085 134.403 31.0085C135.108 31.0085 135.61 31.5024 135.61 32.2127C135.61 32.9229 135.11 33.4168 134.403 33.4168C133.696 33.4168 133.208 32.9229 133.208 32.2127ZM133.435 44.8726V35.3924H135.374V44.8726H133.435Z" fill="#ffffff"/>
  <path d="M137.299 40.0843C137.299 37.1704 139.348 35.1948 142.023 35.1948C143.619 35.1948 144.678 35.7875 145.374 36.6859V35.3924H147.313V44.8726H145.374V43.5791C144.678 44.4775 143.619 45.0702 142.023 45.0702C139.348 45.0702 137.299 42.9959 137.299 40.0819V40.0843ZM142.258 36.954C140.445 36.954 139.241 38.3369 139.241 40.0843C139.241 41.8317 140.447 43.3134 142.258 43.3134C144.069 43.3134 145.365 41.8317 145.365 40.0843C145.365 38.3369 144.062 36.954 142.258 36.954Z" fill="#ffffff"/>
  <path d="M152.469 37.9111L154.457 37.0715V38.8283L152.469 39.6679V44.8725H150.529V40.477L148.541 41.3072V39.5503L150.529 38.7201V30.9685H152.469V37.9111Z" fill="#ffffff"/>
  <path d="M167.505 40.4394L162.555 34.9196V44.8749H160.497V31.4624H162.35L167.729 37.8429L173.08 31.4624H174.921V44.8749H172.863V34.9008L167.953 40.4417H167.502L167.505 40.4394Z" fill="#ffffff"/>
  <path d="M186.118 44.1436C185.03 44.7668 183.845 45.0725 182.531 45.0725C179.366 45.0725 177.18 43.057 177.18 40.1337C177.18 37.2103 179.208 35.1948 182.02 35.1948C185.077 35.1948 187.046 37.763 186.489 40.8439H179.168C179.511 42.3938 180.706 43.2546 182.528 43.2546C183.625 43.2546 184.566 42.9676 185.821 42.3656L186.115 44.1436H186.118ZM184.736 39.2847C184.608 37.9112 183.628 36.9846 182.08 36.9846C180.533 36.9846 179.376 37.9135 179.229 39.2847H184.736Z" fill="#ffffff"/>
  <path d="M193.24 35.197C194.484 35.197 195.621 35.5827 196.062 35.8297L195.856 37.5771C195.189 37.2713 194.318 37.015 193.24 37.015C191.231 37.015 189.849 38.2803 189.849 40.0865C189.849 41.8927 191.231 43.2568 193.259 43.2568C194.141 43.2568 195.149 43.0192 195.896 42.6735L196.19 44.4515C195.289 44.8066 194.318 45.0747 193.259 45.0747C190.083 45.0747 187.908 43.0498 187.908 40.0865C187.908 37.1232 190.073 35.197 193.238 35.197H193.24Z" fill="#ffffff"/>
  <path d="M206.694 39.1177V44.875H204.754V39.5316C204.754 37.9606 203.903 37.0528 202.491 37.0528C201.079 37.0528 199.893 37.9606 199.893 39.5316V44.875H197.954V30.9709H199.905V36.5895C200.218 36.105 201.112 35.1972 202.796 35.1972C205.336 35.1972 206.696 36.8176 206.696 39.1177H206.694Z" fill="#ffffff"/>
  <path d="M208.523 40.0843C208.523 37.1704 210.572 35.1948 213.247 35.1948C214.843 35.1948 215.903 35.7875 216.598 36.6859V35.3924H218.537V44.8726H216.598V43.5791C215.903 44.4775 214.843 45.0702 213.247 45.0702C210.572 45.0702 208.523 42.9959 208.523 40.0819V40.0843ZM213.483 36.954C211.669 36.954 210.465 38.3369 210.465 40.0843C210.465 41.8317 211.672 43.3134 213.483 43.3134C215.293 43.3134 216.589 41.8317 216.589 40.0843C216.589 38.3369 215.286 36.954 213.483 36.954Z" fill="#ffffff"/>
  <path d="M229.851 39.1175V44.8748H227.912V39.5315C227.912 37.9604 227.06 37.0526 225.599 37.0526C224.138 37.0526 223.002 37.9604 223.002 39.5315V44.8748H221.062V35.3946H223.013V36.5893C223.326 36.1048 224.22 35.197 225.905 35.197C228.493 35.197 229.853 36.8174 229.853 39.1175H229.851Z" fill="#ffffff"/>
  <path d="M232.028 32.2127C232.028 31.5024 232.518 31.0085 233.223 31.0085C233.928 31.0085 234.43 31.5024 234.43 32.2127C234.43 32.9229 233.93 33.4168 233.223 33.4168C232.516 33.4168 232.028 32.9229 232.028 32.2127ZM232.255 44.8726V35.3924H234.194V44.8726H232.255Z" fill="#ffffff"/>
  <path d="M241.396 35.197C242.64 35.197 243.776 35.5827 244.217 35.8297L244.012 37.5771C243.345 37.2713 242.474 37.015 241.396 37.015C239.387 37.015 238.005 38.2803 238.005 40.0865C238.005 41.8927 239.387 43.2568 241.415 43.2568C242.297 43.2568 243.305 43.0192 244.052 42.6735L244.346 44.4515C243.445 44.8066 242.474 45.0747 241.415 45.0747C238.238 45.0747 236.063 43.0498 236.063 40.0865C236.063 37.1232 238.229 35.197 241.394 35.197H241.396Z" fill="#ffffff"/>
  <path d="M245.585 43.2452L250.437 37.0528H245.683V35.3948H252.64V37.0246L247.788 43.217H252.943V44.875H245.583V43.2452H245.585Z" fill="#ffffff"/>
  <path d="M263.43 39.1175V44.8748H261.491V39.5315C261.491 37.9604 260.639 37.0526 259.178 37.0526C257.717 37.0526 256.581 37.9604 256.581 39.5315V44.8748H254.642V35.3946H256.593V36.5893C256.905 36.1048 257.799 35.197 259.484 35.197C262.072 35.197 263.433 36.8174 263.433 39.1175H263.43Z" fill="#ffffff"/>
  <path d="M272.217 35.3948H274.352L269.843 46.0815C269.09 47.8383 268.275 49.0237 265.983 49.0237C265.15 49.0237 264.593 48.7673 264.425 48.6779L264.63 47.0575C264.894 47.1751 265.405 47.3045 265.895 47.3045C267.16 47.3045 267.668 46.6624 268.091 45.557L268.296 45.0138L264.24 35.3948H266.376L269.307 42.8618L272.217 35.3948Z" fill="#ffffff"/>
  <path d="M33.5977 24.2705C26.816 24.2705 21.3179 29.8114 21.3179 36.6459C21.3179 43.4803 26.816 49.0212 33.5977 49.0212C40.3794 49.0212 45.8775 43.4803 45.8775 36.6459C45.8775 29.8114 40.3794 24.2705 33.5977 24.2705ZM44.2229 36.6459C44.2229 38.8566 43.5532 40.9144 42.4097 42.6219L40.8951 28.8848C42.9394 30.8368 44.2229 33.5908 44.2229 36.6482V36.6459ZM40.0013 28.1205L33.614 41.0838L27.1544 28.1487C28.9443 26.7658 31.173 25.9356 33.5977 25.9356C36.0224 25.9356 38.2184 26.7564 40.0037 28.1205H40.0013ZM26.2489 28.9271L24.746 42.556C23.6282 40.8603 22.9724 38.8284 22.9724 36.6435C22.9724 33.612 24.235 30.8768 26.2489 28.9271ZM26.2069 44.3222L27.5068 32.5419L33.6257 44.7926L39.6466 32.5701L40.9465 44.3599C39.0352 46.2084 36.4495 47.3538 33.5977 47.3538C30.7459 47.3538 28.1206 46.1943 26.2069 44.3222Z" fill="#ffffff"/>
  <path d="M66.6847 0.66748H53.4551V7.33258H40.2208V0.66748H26.9935V7.33258H13.7638V0.66748H0.53418V67.3326H66.6847V0.66748ZM2.18643 2.34669L12.1092 2.35845V2.34669V9.00003H28.6457V2.35845H38.5685V9.00003H55.105V2.35845H65.0301V35.6628H51.7701C51.7585 35.4488 51.7468 35.2347 51.7258 35.016L55.6814 32.4572L53.9475 27.041L49.2568 27.2902C48.6897 26.3307 48.0363 25.4205 47.3058 24.5786L49.0071 20.1618L44.4424 16.8128L40.7972 19.7973C39.7774 19.3552 38.7155 19.0071 37.635 18.7601L36.4332 14.1858H30.7857L29.5838 18.7601C28.571 18.9906 27.5745 19.3128 26.6107 19.7173L22.9982 16.6905L18.3962 19.9878L20.0484 24.4234C19.3086 25.2559 18.6459 26.1567 18.0695 27.1115L13.3788 26.8081L11.5865 32.2056L15.5141 34.8114C15.4861 35.0983 15.4651 35.3806 15.4487 35.6628H2.18643V2.34669ZM46.9184 52.5983L44.4004 54.4234L40.9605 51.5753L40.4915 51.794C39.2873 52.3514 38.0178 52.7583 36.7179 53.0076L36.2092 53.1063L35.0447 57.4361L31.9432 57.4196L30.8277 53.0805L30.3213 52.977C29.0284 52.7136 27.7612 52.2902 26.5594 51.7188L26.0927 51.4953L22.6248 54.3034L20.1278 52.4478L21.7613 48.2757L21.4136 47.8923C20.5175 46.9069 19.7404 45.8133 19.1056 44.6444L18.8582 44.1882L14.4149 44.3998L13.4791 41.4201L17.2387 39.0165L17.1827 38.4991C17.1126 37.8688 17.0776 37.2432 17.0776 36.6411C17.0776 35.9568 17.1243 35.2394 17.2177 34.5057L17.283 33.9906L13.5655 31.5236L14.5503 28.5602L18.9913 28.8472L19.248 28.3956C19.9037 27.2385 20.6995 26.159 21.6097 25.1901L21.9644 24.8114L20.3985 20.6087L22.9258 18.7978L26.347 21.6647L26.8184 21.4506C27.9736 20.9238 29.1848 20.5358 30.417 20.2912L30.9257 20.1901L32.0669 15.8556H35.1683L36.3072 20.1901L36.8159 20.2912C38.1134 20.5475 39.3806 20.9638 40.5848 21.5283L41.0539 21.747L44.5077 18.9201L47.0164 20.7592L45.4039 24.9431L45.7539 25.3241C46.6547 26.3048 47.4365 27.3914 48.0783 28.5579L48.3303 29.0118L52.7736 28.7743L53.7258 31.7493L49.9802 34.1741L50.0386 34.6915C50.1156 35.3617 50.1552 36.0179 50.1552 36.6411C50.1552 37.3044 50.1132 37.9746 50.0269 38.6849L49.9639 39.1999L53.6978 41.6458L52.7293 44.6162L48.286 44.3528L48.0316 44.8067C47.3828 45.9662 46.594 47.0504 45.6886 48.0264L45.3362 48.4074L46.9254 52.6007L46.9184 52.5983ZM2.18643 65.6651V37.3302H15.4487C15.4604 37.6077 15.4604 37.8782 15.4837 38.1604L11.5141 40.6981L13.2177 46.1237L17.9084 45.9003C18.4685 46.8646 19.1196 47.7771 19.8454 48.6237L18.1208 53.0287L22.6668 56.4036L26.3284 53.4403C27.3482 53.8895 28.4077 54.2446 29.4858 54.4963L30.662 59.0753L36.3095 59.1082L37.5394 54.5386C38.6222 54.2987 39.684 53.9553 40.7062 53.5203L44.335 56.5259L48.9207 53.2004L47.2428 48.7743C47.9779 47.937 48.636 47.0315 49.2078 46.0744L53.8985 46.3519L55.6627 40.945L51.7211 38.3627C51.7538 38.0123 51.7748 37.6689 51.7888 37.3279H65.0325V65.6628H2.18643V65.6651Z" fill="#ffffff"/>
</svg>